<?xml version="1.0" encoding="UTF-8"?>
<!DOCTYPE svg PUBLIC "-//W3C//DTD SVG 1.1//EN" "http://www.w3.org/Graphics/SVG/1.1/DTD/svg11.dtd">
<svg xmlns="http://www.w3.org/2000/svg" version="1.1" width="123px" height="72px" style="shape-rendering:geometricPrecision; text-rendering:geometricPrecision; image-rendering:optimizeQuality; fill-rule:evenodd; clip-rule:evenodd" xmlns:xlink="http://www.w3.org/1999/xlink">
<g><path style="opacity:0.098" fill="#c67171" d="M 4.5,13.5 C 9.64045,12.5119 14.9738,12.1786 20.5,12.5C 20.7845,14.4147 20.4511,16.0813 19.5,17.5C 19.5,16.1667 19.5,14.8333 19.5,13.5C 14.5,13.5 9.5,13.5 4.5,13.5 Z"/></g>
<g><path style="opacity:1" fill="#e36566" d="M 4.5,13.5 C 9.5,13.5 14.5,13.5 19.5,13.5C 19.5,14.8333 19.5,16.1667 19.5,17.5C 18.1667,17.5 16.8333,17.5 15.5,17.5C 16.3984,16.8423 17.3984,16.1757 18.5,15.5C 14.1667,14.1667 9.83333,14.1667 5.5,15.5C 6.94916,16.1719 8.2825,16.8386 9.5,17.5C 7.5,17.5 5.5,17.5 3.5,17.5C 3.23219,15.901 3.56552,14.5676 4.5,13.5 Z"/></g>
<g><path style="opacity:1" fill="#f35b5a" d="M 15.5,17.5 C 15.1667,17.5 14.8333,17.5 14.5,17.5C 13.2521,18.3339 12.5854,19.6672 12.5,21.5C 12.0343,24.4922 11.7009,27.4922 11.5,30.5C 9.90097,30.7678 8.56764,30.4345 7.5,29.5C 8.03813,25.4764 8.70479,21.4764 9.5,17.5C 8.2825,16.8386 6.94916,16.1719 5.5,15.5C 9.83333,14.1667 14.1667,14.1667 18.5,15.5C 17.3984,16.1757 16.3984,16.8423 15.5,17.5 Z"/></g>
<g><path style="opacity:1" fill="#e16665" d="M 36.5,20.5 C 34.712,20.2148 33.0453,20.5481 31.5,21.5C 33.7431,22.4118 34.7431,24.0785 34.5,26.5C 33.8384,29.4682 33.505,32.4682 33.5,35.5C 32.7326,34.828 32.0659,33.9947 31.5,33C 33.1591,30.0698 33.4924,27.0698 32.5,24C 31.5,23.3333 30.5,23.3333 29.5,24C 28.1312,25.7189 27.1312,27.5522 26.5,29.5C 26.3801,27.2655 26.7135,25.0989 27.5,23C 27.1501,21.7425 26.4835,21.4092 25.5,22C 24.4392,23.8491 23.7725,25.8491 23.5,28C 23.6842,29.3756 24.3509,30.2089 25.5,30.5C 24.0527,31.8852 23.0527,31.5518 22.5,29.5C 23.3398,23.8068 24.3398,18.1402 25.5,12.5C 27.1667,12.5 28.8333,12.5 30.5,12.5C 29.8157,15.5458 29.3157,18.5458 29,21.5C 31.3569,19.3542 33.8569,19.0209 36.5,20.5 Z"/></g>
<g><path style="opacity:0.514" fill="#ca6262" d="M 14.5,17.5 C 13.704,22.147 13.0373,26.8137 12.5,31.5C 10.5,31.5 8.5,31.5 6.5,31.5C 6.32842,30.5084 6.66175,29.8417 7.5,29.5C 8.56764,30.4345 9.90097,30.7678 11.5,30.5C 11.7009,27.4922 12.0343,24.4922 12.5,21.5C 12.5854,19.6672 13.2521,18.3339 14.5,17.5 Z"/></g>
<g><path style="opacity:1" fill="#f65758" d="M 26.5,29.5 C 25.8333,29.5 25.5,29.8333 25.5,30.5C 24.3509,30.2089 23.6842,29.3756 23.5,28C 23.7725,25.8491 24.4392,23.8491 25.5,22C 26.4835,21.4092 27.1501,21.7425 27.5,23C 26.7135,25.0989 26.3801,27.2655 26.5,29.5 Z"/></g>
<g><path style="opacity:1" fill="#f45957" d="M 58.5,23.5 C 58.5,25.1667 58.5,26.8333 58.5,28.5C 54.2984,28.1832 50.2984,28.5166 46.5,29.5C 44.744,28.4479 44.0773,26.7812 44.5,24.5C 45.9587,24.4326 47.2921,24.7659 48.5,25.5C 50.5273,25.6621 52.5273,25.4955 54.5,25C 53.944,24.6174 53.6107,24.1174 53.5,23.5C 52.3915,22.71 51.0581,22.21 49.5,22C 52.7413,21.2069 55.7413,21.7069 58.5,23.5 Z"/></g>
<g><path style="opacity:0.859" fill="#e26a66" d="M 58.5,23.5 C 59.4614,25.2646 59.7947,27.2646 59.5,29.5C 55.1667,29.5 50.8333,29.5 46.5,29.5C 50.2984,28.5166 54.2984,28.1832 58.5,28.5C 58.5,26.8333 58.5,25.1667 58.5,23.5 Z"/></g>
<g><path style="opacity:0.271" fill="#d96969" d="M 36.5,20.5 C 37.9931,21.3121 38.6598,22.6455 38.5,24.5C 36.4855,28.6341 37.4855,31.8007 41.5,34C 39.0387,37.4674 36.3721,37.9674 33.5,35.5C 35.1667,35.5 36.8333,35.5 38.5,35.5C 36.8647,30.6786 36.198,25.6786 36.5,20.5 Z"/></g>
<g><path style="opacity:1" fill="#e5605f" d="M 58.5,23.5 C 55.7413,21.7069 52.7413,21.2069 49.5,22C 51.0581,22.21 52.3915,22.71 53.5,23.5C 51.302,23.1201 49.6354,23.7868 48.5,25.5C 47.2921,24.7659 45.9587,24.4326 44.5,24.5C 44.0773,26.7812 44.744,28.4479 46.5,29.5C 46.5569,30.609 46.8902,31.609 47.5,32.5C 49.3691,33.1646 51.3691,33.8313 53.5,34.5C 52.7573,35.1818 52.0906,35.8485 51.5,36.5C 45.9669,38.1206 42.6336,35.954 41.5,30C 43.4009,20.7189 48.7343,17.7189 57.5,21C 58.2524,21.6708 58.5858,22.5041 58.5,23.5 Z"/></g>
<g><path style="opacity:0.819" fill="#010101" d="M 108.5,31.5 C 110.833,31.5 113.167,31.5 115.5,31.5C 115.5,42.5 115.5,53.5 115.5,64.5C 112.606,64.9577 110.106,64.291 108,62.5C 100.497,67.3339 94.8299,65.6673 91,57.5C 88.865,45.6431 93.6984,40.1431 105.5,41C 106.333,41.8333 107.167,42.6667 108,43.5C 108.499,39.5138 108.666,35.5138 108.5,31.5 Z M 100.5,46.5 C 108.036,45.9195 110.536,49.2528 108,56.5C 104.667,60.5 101.333,60.5 98,56.5C 97.3333,53.8333 97.3333,51.1667 98,48.5C 98.9947,47.9341 99.828,47.2674 100.5,46.5 Z"/></g>
<g><path style="opacity:0.915" fill="#030202" d="M 6.5,31.5 C 8.5,31.5 10.5,31.5 12.5,31.5C 15.5,31.5 18.5,31.5 21.5,31.5C 22.9303,32.5375 24.597,33.2041 26.5,33.5C 29.8843,39.343 28.8843,44.1763 23.5,48C 28.7375,51.2738 29.9042,55.7738 27,61.5C 25.5806,62.4601 24.0806,63.2935 22.5,64C 16.1754,64.4995 9.84209,64.6662 3.5,64.5C 3.5,62.5 3.5,60.5 3.5,58.5C 4.83333,58.5 6.16667,58.5 7.5,58.5C 7.5,51.5 7.5,44.5 7.5,37.5C 6.16667,37.5 4.83333,37.5 3.5,37.5C 3.5,35.5 3.5,33.5 3.5,31.5C 4.5,31.5 5.5,31.5 6.5,31.5 Z M 13.5,37.5 C 15.8568,37.3367 18.1902,37.5034 20.5,38C 22.6015,39.7328 22.9348,41.7328 21.5,44C 18.854,44.4974 16.1873,44.6641 13.5,44.5C 13.5,42.1667 13.5,39.8333 13.5,37.5 Z M 13.5,51.5 C 16.1873,51.3359 18.854,51.5026 21.5,52C 22.9348,54.2672 22.6015,56.2672 20.5,58C 18.1902,58.4966 15.8568,58.6633 13.5,58.5C 13.5,56.1667 13.5,53.8333 13.5,51.5 Z"/></g>
<g><path style="opacity:0.067" fill="#904c4e" d="M 22.5,29.5 C 23.0527,31.5518 24.0527,31.8852 25.5,30.5C 25.5,29.8333 25.8333,29.5 26.5,29.5C 26.5,30.8333 26.5,32.1667 26.5,33.5C 24.597,33.2041 22.9303,32.5375 21.5,31.5C 21.3284,30.5084 21.6618,29.8417 22.5,29.5 Z"/></g>
<g><path style="opacity:1" fill="#d56566" d="M 51.5,36.5 C 52.0906,35.8485 52.7573,35.1818 53.5,34.5C 51.3691,33.8313 49.3691,33.1646 47.5,32.5C 50.5248,32.1231 53.5248,31.9565 56.5,32C 57.0606,33.5655 56.3939,34.8989 54.5,36C 53.552,36.4828 52.552,36.6495 51.5,36.5 Z"/></g>
<g><path style="opacity:1" fill="#f5585b" d="M 36.5,20.5 C 36.198,25.6786 36.8647,30.6786 38.5,35.5C 36.8333,35.5 35.1667,35.5 33.5,35.5C 33.505,32.4682 33.8384,29.4682 34.5,26.5C 34.7431,24.0785 33.7431,22.4118 31.5,21.5C 33.0453,20.5481 34.712,20.2148 36.5,20.5 Z"/></g>
<g><path style="opacity:0.89" fill="#010101" d="M 63.5,40.5 C 65.5,40.5 67.5,40.5 69.5,40.5C 69.2105,44.554 69.8771,45.054 71.5,42C 76.1143,39.5977 80.281,40.0977 84,43.5C 85.4247,50.3846 85.9247,57.3846 85.5,64.5C 83.5,64.5 81.5,64.5 79.5,64.5C 79.6659,59.4889 79.4993,54.4889 79,49.5C 77.3342,46.6212 74.8342,45.7879 71.5,47C 70.8742,47.7504 70.3742,48.5838 70,49.5C 69.5007,54.4889 69.3341,59.4889 69.5,64.5C 67.5,64.5 65.5,64.5 63.5,64.5C 63.5,56.5 63.5,48.5 63.5,40.5 Z"/></g>
<g><path style="opacity:0.849" fill="#030303" d="M 38.5,40.5 C 41.5184,40.3354 44.5184,40.502 47.5,41C 48.5,43 49.5,43 50.5,41C 52.4727,40.5045 54.4727,40.3379 56.5,40.5C 56.2892,48.5966 56.9558,56.5966 58.5,64.5C 55.0295,65.1252 52.1962,64.1252 50,61.5C 45.0786,66.726 40.0786,66.726 35,61.5C 30.8662,53.5545 32.0328,46.5545 38.5,40.5 Z M 41.5,46.5 C 49.4388,46.5775 51.7722,50.2442 48.5,57.5C 45.377,60.2049 42.5437,59.8716 40,56.5C 39.037,52.8513 39.537,49.518 41.5,46.5 Z"/></g>
</svg>
